<svg height="269pt" preserveAspectRatio="xMidYMid meet" viewBox="0 0 1214 269" width="1214pt" xmlns="http://www.w3.org/2000/svg"><g transform="matrix(.1 0 0 -.1 0 269)"><path d="m258 2645c-59-22-126-72-163-123-69-94-66-25-63-1192l3-1055 25-50c31-64 101-134 165-165l50-25h5800 5800l50 25c64 31 134 101 165 165l25 50v1070 1070l-25 50c-31 64-101 134-165 165l-50 25-5790 2c-4890 1-5796-1-5827-12zm4237-506c186-44 328-156 413-324 35-70 57-144 45-155-4-4-82-21-173-39-91-17-175-34-187-36-13-3-23-1-23 4 0 29-45 123-75 158-55 64-113 87-220 87-77 1-98-3-148-26-88-41-146-111-187-228-28-82-39-276-20-384 27-157 125-292 240-329 66-21 172-22 233-1 86 29 186 146 187 219 1 43 7 44 204 14 103-15 190-30 193-32 9-9-29-134-62-202-112-233-313-344-622-345-398 0-656 192-749 558-50 195-42 411 20 594 44 129 86 197 176 289 58 59 94 85 160 117 180 88 392 110 595 61zm2212 6c235-46 424-206 513-435 46-121 63-240 57-405-6-169-27-260-93-395-39-79-62-110-133-181-72-73-101-94-181-132-131-63-225-81-394-74-197 8-320 51-450 157-247 201-344 626-225 985 125 377 476 563 906 480zm-5199-30c145-29 243-99 300-215 24-50 27-66 27-165 0-98-3-116-26-165-34-72-93-131-165-165l-59-28 41-12c184-54 288-217 270-422-12-153-85-261-218-326-121-58-131-60-633-64l-460-4v793 793l425-3c324-2 442-6 498-17zm1902-159v-178l-22 6c-13 3-128 9-256 12l-233 7 3-626 3-627h-200-200l3 627 4 626-234-7c-128-3-243-9-255-12l-23-6v178 179h705 705zm4504 107c18-38 136-221 262-408 125-187 251-379 279-427l52-87-4 272c-2 150-5 372-6 495l-4 222h196 196v-790-790h-205-205l-30 57c-16 31-139 224-274 428-134 203-261 401-281 438l-38 69 4-339c2-186 6-409 8-496l3-157h-196-196v790 790h202 203zm1618-554-3-621 386 4 385 3v-179-179l-52 7c-29 3-291 6-583 6h-530v790 790h200 200zm1096 560c26-67 272-523 278-516 16 16 259 474 276 520l21 57h239 239l-59-87c-33-49-164-261-291-472l-233-384 4-319 3-318h-200-201l4 317 4 318-237 390c-131 215-259 422-285 460-25 39-50 76-54 83-6 9 43 12 231 12h238z"/><path d="m6416 1824c-99-32-170-97-216-199-38-83-53-162-52-285 0-175 43-305 128-394 52-55 102-81 180-95 201-37 364 91 415 324 18 86 16 275-5 355-35 135-112 237-212 282-62 27-174 33-238 12z"/><path d="m970 1670v-150h183c207 0 250 11 287 72 24 40 27 116 4 159-29 58-75 69-286 69h-188z"/><path d="m970 1039v-181l203 4c193 3 204 5 246 28 59 33 84 77 85 149 1 89-46 152-130 171-21 5-121 10-221 10h-183z"/></g></svg>